# xmcd
#
# Track frame offsets:
# 150
# 16159
# 32550
# 51480
# 67203
# 83367
# 103375
# 119604
# 139815
# 155922
#
# Disc length: 2290 seconds
#
#
# Revision: 0
# Processed by: cddbd v1.4PL0 Copyright (c) Steve Scherf et al.
# Submitted via: FreeRIP 2.35 
#
DISCID=8e08f00a
DTITLE=Clarence Carter - All Y'all feeling All Right
DYEAR=1900
DGENRE=Blues
TTITLE0=A Good Time Tonight
TTITLE1=Lets Do It Before We Get Sleepy
TTITLE2=Do It To Me Again
TTITLE3=I Like Your Touch
TTITLE4=Let It All Haing Out
TTITLE5=Open The Door To Your Heart
TTITLE6=She Got Me Pumping
TTITLE7=SomeBodys Coming
TTITLE8=Did I Do The Right Thing
TTITLE9=Put Up Or Shut Up
EXTD=
EXTT0=
EXTT1=
EXTT2=
EXTT3=
EXTT4=
EXTT5=
EXTT6=
EXTT7=
EXTT8=
EXTT9=
PLAYORDER=
